<svg id="Layer_1" enable-background="new 0 0 511.691 511.691" height="512" viewBox="0 0 511.691 511.691" width="512" xmlns="http://www.w3.org/2000/svg"><g><g fill="#020288"><path d="m485.775 255.845c0-22.413-8.087-43.477-22.906-59.989 12.528-40.216-15.496-83.928-57.17-89.32-1.591-34.014-27.576-61.76-60.812-66.1-7.827-42.258-63.641-55.138-89.112-20.559-25.486-34.595-81.295-21.677-89.111 20.559-33.235 4.34-59.22 32.086-60.811 66.1-41.686 5.398-69.694 49.109-57.171 89.32-30.356 32.522-30.354 87.459 0 119.979-12.529 40.216 15.498 83.928 57.171 89.32 1.591 34.014 27.575 61.76 60.811 66.101 7.826 42.258 63.641 55.136 89.112 20.558 25.486 34.595 81.295 21.677 89.112-20.558 33.235-4.341 59.221-32.087 60.812-66.101 41.685-5.398 69.695-49.109 57.17-89.32 14.818-16.513 22.905-37.576 22.905-59.99zm-54.757 115.465c-9.433 9.379-21.92 14.533-35.191 14.533-5.854-.318-11.022 5.147-10.301 10.988 3.081 29.158-20.396 55.192-49.751 55.014-5.522 0-10 4.478-10 10 0 16.541-13.458 29.999-30 29.999s-29.999-13.458-29.999-29.999v-130.5c0-5.522-4.478-10-10.001-10s-10 4.478-10 10v130.501c0 16.541-13.458 29.999-30 29.999s-30-13.458-30-29.999c0-5.522-4.477-10-10-10-29.347.17-52.839-25.846-49.751-55.013.708-5.715-4.215-11.111-9.951-10.991-26.97.745-50.867-23.025-50.298-49.998 0-6.485 1.224-12.796 3.64-18.757 1.53-3.777.615-8.105-2.313-10.94-28.238-26.178-28.256-74.425.001-100.602 2.927-2.835 3.843-7.163 2.313-10.94-7.546-18.263-3.102-40.415 11.117-54.223 9.511-9.462 22.156-14.626 35.542-14.532 5.755.139 10.64-5.295 9.95-10.991-.165-1.659-.249-3.345-.249-5.013 0-27.57 22.43-50 50-50 5.523 0 10-4.477 10-10 0-16.541 13.458-29.999 30-29.999s30 13.457 30 29.999v135c.474 13.273 19.555 13.202 20.001 0v-135c0-16.542 13.457-29.999 29.999-29.999s30 13.457 30 29.999c0 5.522 4.478 10 10 10 27.57 0 50.001 22.43 50.001 50 0 1.66-.084 3.348-.25 5.015-.73 5.855 4.441 11.304 10.301 10.988 26.826-.551 50.518 23.157 49.948 49.999 0 6.485-1.224 12.796-3.639 18.757-1.53 3.777-.615 8.105 2.313 10.94 13.752 13.312 21.326 31.176 21.326 50.301 0 19.126-7.574 36.99-21.326 50.302-2.929 2.835-3.844 7.163-2.313 10.94 7.544 18.262 3.102 40.414-11.119 54.222z"/><path d="m414.348 220.697c-16.822-6.356-21.474-29.222-8.562-41.689 3.905-3.905 3.905-10.237 0-14.143-3.906-3.904-10.236-3.904-14.143 0-8.592 8.592-13.323 20.015-13.323 32.165 0 3.004.29 5.952.847 8.814h-47.888c-5.522 0-10 4.478-10 10s4.478 10 10 10h57.275c4.767 5.821 11.019 10.485 18.372 13.424 12.395 4.499 19.585-13.195 7.422-18.571z"/><path d="m338.698 382.941c-27.842 0-50.492 22.65-50.492 50.492 0 5.522 4.478 10 10 10s10-4.478 10-10c0-16.813 13.679-30.492 30.492-30.492 13.235-.481 13.26-19.509 0-20z"/><path d="m223.346 78.258c-.459-13.231-19.539-13.242-20 0 0 16.813-13.679 30.492-30.493 30.492-5.523 0-10 4.478-10 10s4.477 10 10 10c27.842 0 50.493-22.65 50.493-50.492z"/><path d="m215.776 140.845c-5.523 0-10 4.478-10 10v34c0 5.522 4.477 10 10 10s10-4.478 10-10v-34c0-5.523-4.477-10-10-10z"/><path d="m295.775 194.845c5.522 0 10-4.478 10-10v-34c0-5.522-4.478-10-10-10s-10 4.478-10 10v34c0 5.522 4.478 10 10 10z"/><path d="m180.278 285.845h-57.28c-4.766-5.821-11.018-10.485-18.371-13.424-5.127-2.049-10.947.446-12.997 5.575-2.05 5.128.446 10.947 5.574 12.997 9.736 3.891 16.028 13.181 16.028 23.666 0 6.809-2.651 13.209-7.465 18.022-6.322 6.138-1.631 17.228 7.072 17.071 2.559 0 5.118-.976 7.071-2.929 10.722-10.574 15.408-26.245 12.475-40.979h47.893c5.523 0 10-4.478 10-10s-4.477-9.999-10-9.999z"/><path d="m150.776 265.845h29.002c13.243-.487 13.254-19.509 0-20h-29.002c-13.243.487-13.254 19.509 0 20z"/><path d="m150.776 225.846h29.002c13.243-.487 13.254-19.509 0-20h-29.002c-13.243.487-13.254 19.509 0 20z"/><path d="m295.775 370.846c5.522 0 10-4.478 10-10v-29.501c0-5.522-4.478-10-10-10s-10 4.478-10 10v29.501c0 5.522 4.478 10 10 10z"/><path d="m215.776 321.345c-5.523 0-10 4.478-10 10v29.501c0 5.522 4.477 10 10 10s10-4.478 10-10v-29.501c0-5.523-4.477-10-10-10z"/><path d="m360.776 245.845h-29.498c-5.522 0-10 4.478-10 10s4.478 10 10 10h29.498c13.243-.487 13.254-19.509 0-20z"/><path d="m360.776 285.845h-29.498c-5.522 0-10 4.478-10 10s4.478 10 10 10h29.498c13.243-.487 13.254-19.509 0-20z"/></g><path clip-rule="evenodd" d="m195.776 175.846h120c11 0 20 9.004 20 20v120c0 10.996-9.004 20-20 20h-120c-10.995 0-20-9-20-20v-120c0-11.001 9-20 20-20z" fill="#ffbebc" fill-rule="evenodd"/><path d="m295.775 205.846h-80c-5.523 0-10 4.478-10 10v79.999c0 5.522 4.477 10 10 10h40c2.652 0 5.196-1.054 7.071-2.929l40-40c1.875-1.876 2.929-4.419 2.929-7.071v-39.999c0-5.523-4.477-10-10-10zm-10 45.856-34.142 34.143h-25.858v-59.999h60z" fill="#020288"/></g></svg>